<?xml version="1.0" encoding="UTF-8"?>
<!DOCTYPE svg PUBLIC "-//W3C//DTD SVG 1.1//EN" "http://www.w3.org/Graphics/SVG/1.1/DTD/svg11.dtd">
<!-- Creator: CorelDRAW -->
<svg xmlns="http://www.w3.org/2000/svg" xml:space="preserve" width="1000px" height="1000px" version="1.1" style="shape-rendering:geometricPrecision; text-rendering:geometricPrecision; image-rendering:optimizeQuality; fill-rule:evenodd; clip-rule:evenodd"
viewBox="0 0 1000 1000"
 xmlns:xlink="http://www.w3.org/1999/xlink"
 xmlns:xodm="http://www.corel.com/coreldraw/odm/2003">
 <defs>
  <style type="text/css">
   <![CDATA[
    .fil0 {fill:#93C24E}
    .fil1 {fill:#4F7032}
    .fil2 {fill:#58585A}
   ]]>
  </style>
 </defs>
 <g id="Слой_x0020_1">
  <metadata id="CorelCorpID_0Corel-Layer"/>
  <g id="_3101921146960">
   <path class="fil0" d="M39.16 584.58c28.9,-5.38 43.64,-10.55 77.05,-6.75 23.6,2.68 47.55,9.69 67.89,17.59 41.85,16.25 76.49,36.18 114.97,55.23 78.58,38.87 152.15,77.57 255.33,86.56 102.97,8.97 206,-14.07 279.68,-57.77 39.53,-23.45 65.63,-47.93 91.89,-78.31 18.62,-21.55 57.49,-83.37 60,-110.62 -13.29,28.82 -45.92,60.27 -72.96,78.4 -29.65,19.88 -66.03,35.98 -106.72,45.77 -141.25,34 -325.51,11.16 -464.98,-37.4 -18.96,-6.61 -36.84,-14.03 -56.5,-20.47 -62.61,-20.5 -132.67,-23.47 -196.34,0.17 -15.99,5.94 -40.95,18.02 -49.31,27.6z"/>
   <path class="fil1" d="M506.94 187.74c0.61,6.11 3.35,8.14 6.91,11.17l-6.37 -0.86 2.41 8.08c-5.9,-1.67 -7.22,-5.12 -14.07,-7.93 2.22,6.82 6.2,9.24 9.12,15.06 -5.28,4.95 -4.12,1.86 -10.78,1.66 2.35,13.73 5.53,11.62 8.13,20.24l-13.3 -8.83c2.37,10.42 7.47,6.83 5.72,19.05 -4.85,-1.88 -6.09,-4.47 -10.9,-5.11 2.86,6.71 8.27,11.33 12.23,18.27l-6.75 -2.7c-0.33,0.26 -0.71,0.33 -0.83,0.81l-3.29 2.87c-2.5,1.86 -1.54,0.54 -4.33,2.58l7.17 18.17c-9.87,-4.15 -10.25,-12.26 -20.7,-9.26 1,4.74 2.06,4.46 3.09,8.31 1.23,4.6 0.07,5.74 1.66,10.22 2.3,6.43 8.44,7.44 7.72,14.77 -8.74,1.37 -7.62,-3.96 -16.39,-6.8 2.26,7.89 7.93,15.97 9.67,22.45 -14.98,-2.17 -6.43,-1.45 -14.79,-3.72 1.92,6.45 6.93,14.67 8.48,21.08 -8.91,-3.8 -11.25,-13.08 -21.88,-4.17 3.07,7.5 7.25,8.76 10.58,16.92 -5.91,-2.24 -3.19,-2.74 -9.11,-3.74 -10.03,11.7 1.24,12.77 5.36,23.82 -11.81,6.74 -11.09,-0.11 -20.65,-3.35 1.32,4.96 3.43,12.84 5.19,17.9 2.34,6.76 7.2,8.07 8,14.36 -5.28,-3.72 -11.16,-9.69 -16.93,-12.36 1.35,11.02 10.89,19.22 12.52,25.78 -5.21,-1.97 -7.69,-2.09 -12.73,-3.64 -0.25,0.29 -0.39,0.5 -0.47,1.03l-6.76 8.16c2.35,3.16 9.35,16.96 10.51,20.45 -6.51,-3.32 -7.9,-5.5 -13.64,-9.58l-2.96 6.43c-0.62,-0.26 -2.7,-1.09 -3.15,-1.07 -3.88,0.21 0.01,-0.81 -2.42,1.02 3.83,10.04 4.85,13.14 11.16,20.56 -0.28,0.24 -0.85,0.01 -1.01,0.44l-4.18 1.71c-3.76,1.94 -1.54,0.44 -3.87,2.98 -0.13,0.14 -0.41,0.47 -0.53,0.62 -2.64,3.3 -2.66,7.5 -0.78,9.53 1.67,1.79 3.89,1.58 6.03,1.58l28.35 -1.29c77.11,-0.11 40.76,84.67 47.1,131.13l42.86 7.52c-0.72,-46.19 -14.46,-95.09 7.93,-125.75 12.56,-17.21 42.76,-12.54 65.41,-11.55 2.8,-7.4 7.6,-8.97 10.05,-17.37 -3.85,0.87 -5.91,0.94 -9.14,2.24 -4.65,1.88 -1.07,2.1 -6.71,2.56 4.06,-8.26 5.4,-7.83 7.61,-19.6 -4.88,1.46 -4.62,1.99 -8.88,3.41 0.02,-0.29 0.24,-4.12 0.23,-4.15 -0.44,-3.02 -0.15,-1.43 -1.05,-2.99l-9.46 0.74c2.92,-9.43 10.99,-13.75 15.39,-23.04 -11.15,-4.59 -6.1,4.06 -15.89,-1.5 4.07,-10.04 8.31,-7.93 9.71,-22.37 -7.78,-1.16 -10.95,0.85 -19.21,2.31 3.45,-8.65 11.78,-13.71 13.46,-21.02 -6.31,2.34 -8.39,7.05 -14.42,9.65 1.38,-5.33 0.95,-3.11 4.04,-7.24 6.57,-8.79 1.66,-7.96 1.01,-8.52 -4.89,-4.22 0.64,1.79 -12.66,-0.02 2.02,-8.5 6.97,-8.16 8.2,-15.8 -4.25,1.41 -5.02,1.87 -8.28,4.96 -1.55,-1.75 -1.79,1.01 -1.66,-6.91 -8.94,2.12 -12.08,5.25 -2.99,-13.47l-6.68 -1.38c3.04,-5.02 8.21,-14.87 10.04,-20.82 -5.28,-3.52 -4.41,-2.91 -10.99,-0.82l4.25 -16.21c-6.67,1.87 -6.98,4.05 -12.95,6.86 2.46,-6.49 5.68,-8.02 8.55,-14.48 -4.98,0.27 -7,3.43 -11.51,5.41 1.78,-7.38 3.74,-6.44 2.46,-15.74 -1.52,-11.01 1.16,-5.68 4.28,-15.49l-19.24 8.49c1.74,-6.09 26.57,-31.01 6.75,-23.63 -4.64,1.73 -0.97,0.96 -7.92,0.76l2.32 -7.75c-1.47,-1.95 -3.11,-0.09 -4.61,-4.37 6,-10.89 3.45,-6.07 3.85,-20.23 -11,0.51 -9.44,2.75 -17.24,5.68 1.86,-5.01 7.36,-10.88 7.32,-13.92 -0.13,-8.56 -7.59,-1.38 -11.75,0.37 4.31,-9.04 11.11,-12.51 14.16,-21.49 -27.52,5.23 -7.84,4.91 -20.18,1.87z"/>
   <path class="fil1" d="M721.1 268.02c2.26,5.89 0.65,3.66 5.07,6.04 -0.46,0.17 -2.06,0.35 -2.25,0.47 -3.06,1.93 0.32,-2.09 -1.33,1.41 -1.44,3.06 0.79,2.35 -1.02,5.15 -3.83,-3.14 -3.57,-3.96 -9.17,-6.41 2.8,7.04 4.83,6.46 7,13.42l-8.34 0.03c1.38,10.32 2.96,8.99 5.86,15.83 -6.54,-2.72 -4.9,-5.34 -10.88,-5.71 2.91,6.66 5.55,5.14 5.39,14.48l-8.67 -4.7c0.99,4.26 5.96,10.19 8.4,13.28 -2,1.35 0.53,-0.16 -2.45,0.52 -5.02,1.16 -4.74,2 -8.52,5.4l5.38 13.53c-8.47,-4.28 -7.78,-8.92 -16.46,-7.6 0.1,0.7 3.5,14.43 3.84,15.39 2.28,6.45 6.37,5.09 5.91,11.97 -6.28,0.57 -6.31,-2.77 -12.96,-5.56l7.79 18.03c-8.42,-0.83 -5.49,-0.78 -12.01,-2.93 1.58,5.28 4.7,10.68 6.57,16.48 -8,-3.19 -7.33,-8.8 -17.06,-3.07 1.61,6.49 4.78,6.69 7.95,13.77 -21.96,-9.33 -3.25,15.88 -2.7,17.33 -13.58,3.17 -7.13,-0.37 -16.81,-3.42 8.28,27.58 6.2,14.66 10.51,25.37 -6.97,-3.02 -6.02,-5.93 -13.66,-9.14 2.57,8.35 9.1,16.56 9.95,20.71 -4.92,-2.42 -3.46,-1.87 -9.91,-2.94l-5.82 6.41 8.47 17.53 -11.78 -7.94c-3.11,6.2 -1.06,3.33 -6.18,5.21 2.96,10.51 5.34,10.62 8.74,17.76 -0.32,0.16 -11.93,0.25 -8.22,11.85 7.59,2.91 32.14,-2.02 44.77,1.23 36.15,9.31 21.78,79.1 20.2,120.18l35.7 -3.03c0.56,-23.58 -6.35,-68.35 -2.25,-88.22 6.9,-33.51 26.89,-30.82 61.02,-29.17 3.26,-4.27 7.18,-9.05 8.74,-13.77 -7.42,0.82 -6.69,1.34 -12.67,3.9 2.37,-6.79 4.48,-6.81 6.08,-16.33l-7.09 -0.07c-1.57,-2.34 4.73,-0.55 -8.28,-2.6 3.18,-8.33 8.48,-10.19 12.23,-18.01 -3.95,-1.87 -6.97,0.03 -11.63,-0.52 -0.8,-8.52 4.91,-5.87 5.82,-13.01 1.49,-11.74 0.95,-2.99 -1.68,-6.44l-13.07 2.34c3.17,-7.53 7.89,-9.24 10.85,-16.57 -5.8,2.19 -5.24,3.74 -11.11,6.59 2.31,-5.77 5.21,-6.05 5.42,-11.89 -6.87,-3.21 -2.89,1.17 -11.85,-0.27 2.16,-7.54 5.82,-6.48 5.98,-12.82 -2.69,1.32 -4.05,2.4 -6.94,3.63 -2.1,-5.62 -2.27,-2.55 -6.79,-4.6 -0.34,-7.01 1.4,-6.06 3.64,-11.57 -4.52,-2.42 -0.55,1.02 -5.19,-1.28l8.24 -16.34c-3.96,-2.92 -5.73,-1.17 -8.72,-3.1l2.75 -11.13c-5.16,1.94 -4.76,3.29 -9.92,5.45l6.8 -11.52c-5.05,1 -4.08,2.09 -9.2,4.02 3.08,-8.93 1.8,-4.93 1.47,-14.03 -0.24,-6.93 2.3,-4.1 3.36,-10.94 -5.52,2.6 -8.54,5.46 -15.42,6.41 5.03,-8.2 15.55,-16.5 10.54,-19.08 -3.61,-1.86 -2.39,0.98 -9.68,0.94l-1.92 -7.97c-3.28,-4.31 0.92,7.69 1.7,-17.99 -9.57,0.96 -7.53,1.91 -14.17,4.41 6.5,-11.82 11.92,-17.14 -3.13,-11.16 2.57,-6.77 8.44,-9.71 11.1,-16.6l-16.33 2.98z"/>
   <path class="fil1" d="M294.81 268.02c2.24,5.88 0.65,3.67 5.04,6.07 -9.73,3.2 -0.75,1.07 -4.56,6.99 -3.69,-2.98 -3.75,-4.04 -9.14,-6.37 2.49,6.64 4.31,6.84 7.06,12.21 -6.56,4.29 -3.34,-0.11 -8.45,1.83 1.41,9.99 4.66,9.96 5.66,15.58 -3.33,-2.32 -6.57,-5.78 -10.67,-6.15 2.85,5.19 5.51,6.83 5.38,14.5l-8.65 -4.61c0.94,4.25 5.96,10.24 8.41,13.24 -1.99,1.33 0.52,-0.16 -2.47,0.53l-8.51 5.39 5.37 13.54c-8.51,-4.31 -7.84,-8.98 -16.45,-7.59 1.44,9.68 2.98,14.6 7.38,20.85l1.7 6.39c-5,0.86 -6.11,-2.89 -12.3,-5.45 1.96,6.69 5.99,12.49 7.61,18.1 -7.5,-0.88 -6.01,-1.3 -11.86,-2.99 1.51,5.14 4.72,10.65 6.57,16.46 -8.05,-3.24 -7.29,-8.77 -17.03,-3.07 1.66,6.51 4.82,6.78 7.94,13.77 -21.97,-9.4 -3.19,15.97 -2.68,17.32 -13.56,3.17 -7.17,-0.29 -16.84,-3.43 8.28,27.63 6.19,14.66 10.53,25.38 -6.97,-2.95 -5.98,-5.77 -13.66,-9.11 2.59,8.52 9.06,16.46 9.96,20.69 -4.97,-2.45 -3.42,-1.86 -9.91,-2.93 -0.21,0.36 -0.48,0.52 -0.6,1.1l-5.26 5.3 8.53 17.57 -11.81 -7.97c-1.55,3.07 -0.01,2.17 -1.89,3.76 -0.15,0.13 -0.53,0.38 -0.7,0.48l-3.58 0.96c3.05,10.76 5.29,10.58 8.73,17.76 0,0 -14.67,3.54 -7.72,11.01 3.68,3.96 20.74,0.7 26.14,0.67 30.29,-0.15 39.73,9.55 42.35,48.09l29.08 9.99c-2.71,-61.73 19.11,-59 61.39,-56.92 3.25,-4.44 7.1,-8.97 8.73,-13.76 -7.36,0.77 -6.68,1.24 -12.68,3.93 2.68,-6.39 4.63,-7.74 6.08,-16.37l-7.09 -0.07c-1.58,-2.37 4.73,-0.52 -8.29,-2.61 3.21,-8.4 8.44,-10.16 12.25,-18 -1.47,-0.69 1.36,-0.47 -3.31,-0.76 -13.79,-0.85 -10.85,2.89 -3.88,-9.45 1.97,-3.49 3.03,-5.38 -0.3,-9.77l-13.06 2.33c3.12,-7.51 7.86,-9.26 10.79,-16.57 -5.73,2.22 -5.3,3.78 -11.06,6.61 2.25,-5.77 5.18,-6.13 5.39,-11.85 -6.72,-3.27 -2.93,1.06 -11.87,-0.28 2.16,-7.61 5.79,-6.41 6.05,-12.87 -2.72,1.32 -4.01,2.39 -6.96,3.64 -2.17,-5.66 -2.31,-2.55 -6.79,-4.6 -0.39,-7.03 1.36,-6.07 3.6,-11.56l-5.15 -0.66 8.17 -16.99c-3.07,-2.18 -2.05,-1.25 -4.31,-1.87l-4.32 -1.2 2.7 -11.11c-5.06,1.81 -4.89,3.27 -9.92,5.43l6.81 -11.48c-5.1,0.93 -4.08,2.03 -9.18,3.98 3.02,-8.96 1.75,-4.89 1.43,-14.01 -0.26,-7.13 2.26,-4.14 3.4,-10.94 -5.69,2.6 -8.34,5.28 -15.45,6.42 2.85,-4.78 6.67,-8.51 9.8,-12.92 7.19,-10.12 -3.1,-5.22 -8.91,-5.25l-1.12 -6.76c-4.19,-9.31 -0.17,10.8 0.89,-19.19 -9.24,0.83 -7.72,1.82 -14.17,4.4 6.88,-12.32 11.34,-17.02 -3.11,-11.15 2.59,-7.03 8.06,-8.93 11,-16.89l-16.25 3.26z"/>
   <path class="fil2" d="M8 606.67c67.11,7.46 101.91,17 158.79,54.89 42.11,28.05 87.77,52.75 139.62,74.98 49.3,21.14 105.52,40.44 162.55,52.15 124.59,25.57 185.68,3.17 192.52,4.35 -11.55,-2.33 -36.91,-0.92 -50.83,-1.99 -16.35,-1.25 -32.34,-3.11 -48.09,-5.64 -30.28,-4.86 -58.98,-11.75 -86.97,-19.73 -53.63,-15.31 -108.36,-37.25 -154.48,-60.17 -58.65,-29.13 -90.1,-55.36 -136.11,-78.52 -23.8,-11.98 -51.29,-21.52 -80.6,-25.93 -24.79,-3.72 -75.8,-4.57 -96.4,5.61z"/>
  </g>
 </g>
</svg>
